<?xml version="1.0" encoding="utf-8"?>
<!-- Generator: Adobe Illustrator 28.3.0, SVG Export Plug-In . SVG Version: 6.00 Build 0)  -->
<svg version="1.1" id="Layer_1" xmlns="http://www.w3.org/2000/svg" xmlns:xlink="http://www.w3.org/1999/xlink" x="0px" y="0px"
	 viewBox="0 0 24 24" style="enable-background:new 0 0 24 24;" xml:space="preserve">
<path d="M7.7,1.5c-3.4,0-6.2,2.8-6.2,6.2v8.6c0,3.4,2.8,6.2,6.2,6.2h8.6c3.4,0,6.2-2.8,6.2-6.2V7.7c0-3.4-2.8-6.2-6.2-6.2H7.7z
	 M18,4.9c0.6,0,1.1,0.5,1.1,1.1S18.8,7.2,18,7.2c-0.7,0-1.1-0.6-1.1-1.1S17.4,4.9,18,4.9z M12,6.4c3.1,0,5.6,2.5,5.6,5.6
	s-2.6,5.6-5.6,5.6S6.4,15.1,6.4,12S8.9,6.4,12,6.4z M12,8.2c-2.1,0-3.8,1.7-3.8,3.8s1.7,3.8,3.8,3.8s3.8-1.7,3.8-3.8
	S14.1,8.2,12,8.2z"/>
</svg>
