<?xml version="1.0" encoding="utf-8"?>
<!-- Generator: Adobe Illustrator 28.3.0, SVG Export Plug-In . SVG Version: 6.00 Build 0)  -->
<svg version="1.1" id="Layer_1" xmlns="http://www.w3.org/2000/svg" xmlns:xlink="http://www.w3.org/1999/xlink" x="0px" y="0px"
	 viewBox="0 0 24 24" style="enable-background:new 0 0 24 24;" xml:space="preserve">
<path d="M20,1.5H4c-1.3,0-2.5,1.1-2.5,2.6v16c0,1.2,1.2,2.4,2.5,2.4h16c1.4,0,2.5-1.1,2.5-2.6V4.1C22.5,2.6,21.3,1.5,20,1.5z M8,9.4
	V19H5V9.4C5,9.4,8,9.4,8,9.4z M5,6.8c0-0.7,0.6-1.2,1.5-1.2S8.1,6,8.1,6.8S7.4,8,6.5,8C5.6,8,5,7.4,5,6.8z M19,19h-3c0,0,0-4.7,0-5
	c0-1-0.5-2-1.7-2l0,0c-1.2,0-1.7,1.1-1.7,2c0,0.5,0,5,0,5H9.5V9.4h3v1.3c0,0,1-1.3,2.9-1.3c2,0,3.5,1.4,3.5,4.1L19,19L19,19z"/>
</svg>
